<svg viewBox="0 0 96 96" xmlns="http://www.w3.org/2000/svg" xmlns:xlink="http://www.w3.org/1999/xlink" id="Icons_Hand" overflow="hidden"><path d="M71.5 23C69 23 67 25 67 27.4 67 27.4 67 27.4 67 27.4L67 47C67 47.6 66.6 48 66 48 65.4 48 65 47.6 65 47L65 17.7C65 15.3 63.3 13.3 60.9 13 58.2 12.7 56 14.8 56 17.5L56 47C56 47.6 55.6 48 55 48 54.4 48 54 47.6 54 47L54 11.4 54 11.4C53.9 8.9 51.8 7 49.4 7.1 47 7.1 45.1 9 45 11.4L45 11.4 45 47C45 47.6 44.6 48 44 48 43.4 48 43 47.6 43 47L43 17.5C42.9 15 40.8 13.1 38.4 13.2 36 13.3 34.1 15.2 34.1 17.5L34.1 57.6C34.1 57.7 33.9 57.7 33.9 57.6L29.9 40C29.3 37.3 26.6 35.6 23.9 36.2 21.2 36.8 19.5 39.5 20.1 42.2L26.1 69.2C26.4 70.3 27.1 71.3 28 72L39 80.5 39 88 68 88 68 83C68 75.9 76 75.4 76 62L76 27.5C76 25 74 23 71.5 23 71.5 23 71.5 23 71.5 23L71.5 23Z"/></svg>